<svg xmlns="http://www.w3.org/2000/svg" width="23.938" height="25.5" viewBox="0 0 23.938 25.5"><defs><style>.a{fill:#fff;}</style></defs><path class="a" d="M23.255,18.02l-5.236-2.391a1.078,1.078,0,0,0-1.309.344L14.39,18.991a17.936,17.936,0,0,1-8.284-8.825L8.939,7.7A1.244,1.244,0,0,0,9.262,6.3L7.018.723A1.114,1.114,0,0,0,5.732.031L.87,1.226A1.182,1.182,0,0,0,0,2.391C0,15.166,9.72,25.5,21.694,25.5a1.14,1.14,0,0,0,1.094-.926l1.122-5.18a1.231,1.231,0,0,0-.655-1.375Z" transform="translate(0 0)"/></svg>