<svg xmlns="http://www.w3.org/2000/svg" width="24.999" height="16.421" viewBox="0 0 24.999 16.421"><g transform="translate(-4.5 -10.125)"><path d="M28.457,13.611H5.542c-.573,0-1.042-.784-1.042-1.743h0c0-.959.469-1.743,1.042-1.743H28.457c.573,0,1.042.784,1.042,1.743h0C29.5,12.826,29.03,13.611,28.457,13.611Z"/><path d="M28.457,20.361H5.542c-.573,0-1.042-.784-1.042-1.743h0c0-.959.469-1.743,1.042-1.743H28.457c.573,0,1.042.784,1.042,1.743h0C29.5,19.576,29.03,20.361,28.457,20.361Z" transform="translate(0 -0.282)"/><path d="M28.457,27.111H5.542c-.573,0-1.042-.784-1.042-1.743h0c0-.959.469-1.743,1.042-1.743H28.457c.573,0,1.042.784,1.042,1.743h0C29.5,26.326,29.03,27.111,28.457,27.111Z" transform="translate(0 -0.565)"/></g></svg>