<svg xmlns="http://www.w3.org/2000/svg" width="45.863" height="39.81" viewBox="0 0 45.863 39.81"><g transform="translate(0 -378.125)"><g transform="translate(17.814 378.125)"><g transform="translate(0 0)"><path d="M225.79,34.916a3.841,3.841,0,0,0-2.686-1.13h-.044a3.84,3.84,0,0,0-2.667,1.07L198.872,55.434a9.043,9.043,0,0,1,5.558,4.228,10.17,10.17,0,0,1,.936,2.076l20.485-21.424a3.861,3.861,0,0,0-.061-5.4Z" transform="translate(-198.872 -33.786)"/></g></g><g transform="translate(0 402.175)"><g transform="translate(0 0)"><path d="M15.818,302.275q-.162-.007-.325-.007a8.815,8.815,0,0,0-5.087,1.689c-1.771,1.274-2.477,3.1-3.778,4.772C5,310.819,2.49,311.841,0,312.538c1.45,3.832,6.836,5.4,10.369,5.486q.19,0,.383,0c4,0,8.71-1.486,10.638-5.421C23.506,308.288,20.9,302.487,15.818,302.275Z" transform="translate(0 -302.268)"/></g></g></g></svg>