<svg xmlns="http://www.w3.org/2000/svg" width="69.769" height="64.567" viewBox="0 0 69.769 64.567"><defs><style>.a{fill:#424242;}</style></defs><g transform="translate(3.201) rotate(3)"><path class="a" d="M70.377,61.228,51.838,44.063a23.1,23.1,0,0,0,5.815-15.207c0-13.455-11.891-24.363-26.577-24.363S4.5,15.416,4.5,28.872,16.391,53.235,31.077,53.235a27.993,27.993,0,0,0,16.751-5.446L66.246,64.843a3.038,3.038,0,0,0,4.027.1A2.483,2.483,0,0,0,70.377,61.228ZM31.077,48a21.718,21.718,0,0,1-14.755-5.605,18.01,18.01,0,0,1,0-27.038A21.718,21.718,0,0,1,31.077,9.748a21.718,21.718,0,0,1,14.755,5.605,18.01,18.01,0,0,1,0,27.038A21.718,21.718,0,0,1,31.077,48Z" transform="translate(-4.5 -4.493)"/><path class="a" d="M20.163,11.049c0,5.846-4,10.007-9.916,10.007a10.247,10.247,0,1,1,0-20.494,9.854,9.854,0,0,1,6.871,2.682L14.329,5.926C10.681,2.405,3.9,5.05,3.9,10.809a6.419,6.419,0,0,0,6.351,6.47,5.541,5.541,0,0,0,5.818-4.417H10.247V9.338H20A8.983,8.983,0,0,1,20.163,11.049Z" transform="translate(15.739 11.209)"/></g></svg>